<svg width="186" height="28" viewBox="0 0 186 28" fill="none" xmlns="http://www.w3.org/2000/svg">
<path d="M10.52 17L6.76 20.92V28H0.32V-1.90735e-06H6.76V13.08L19.16 -1.90735e-06H26.36L14.76 12.48L27.04 28H19.48L10.52 17ZM29.9294 -1.90735e-06H36.4094V28H29.9294V-1.90735e-06ZM68.7344 -1.90735e-06V28H63.4144L49.4544 11V28H43.0544V-1.90735e-06H48.4144L62.3344 17V-1.90735e-06H68.7344ZM97.0391 22.8V28H75.3591V-1.90735e-06H96.5191V5.2H81.7991V11.28H94.7991V16.32H81.7991V22.8H97.0391ZM102.195 -1.90735e-06H108.675V22.72H122.715V28H102.195V-1.90735e-06ZM126.336 -1.90735e-06H132.816V28H126.336V-1.90735e-06ZM145.261 5.28H136.301V-1.90735e-06H160.701V5.28H151.741V28H145.261V5.28ZM185.867 22.8V28H164.187V-1.90735e-06H185.347V5.2H170.627V11.28H183.627V16.32H170.627V22.8H185.867Z" fill="#2A4FAF"/>
</svg>
