<svg viewBox="0 0 30 33" fill="none">
<path d="M21.667 3.3C20.2741 4.54395 19.0165 5.8517 17.9022 7.16525C16.0768 4.74504 13.8134 2.29002 11.25 0C4.67009 5.87619 0 13.5326 0 18.15C0 26.3517 6.71585 33 15 33C23.2842 33 30 26.3517 30 18.15C30 14.7166 26.5192 7.63512 21.667 3.3ZM15 29.9062C8.50112 29.9062 3.21429 24.6321 3.21429 18.15C3.21429 15.2258 6.1808 9.5642 11.2607 4.35123C12.7567 5.85686 14.1281 7.42693 15.3013 8.98283L17.7536 12.2338L20.3926 9.12141C20.783 8.66057 21.1862 8.20939 21.5987 7.76982C24.7025 11.4701 26.7857 16.1404 26.7857 18.15C26.7857 24.6321 21.4989 29.9062 15 29.9062ZM20.9913 15.6724L17.556 19.4442C17.556 19.4442 12.1708 12.8249 11.765 12.375C8.92433 15.6531 7.5 17.5712 7.5 19.7491C7.5 24.1203 10.94 26.8125 15.1674 26.8125C16.8589 26.8125 18.4232 26.3053 19.6929 25.4506C22.5777 23.508 23.254 19.7413 21.6522 16.7984C21.4547 16.4362 21.2344 16.0585 20.9913 15.6724Z" fill="#2A4FAF"/>
</svg>
