<svg width="30" height="30" viewBox="0 0 30 30" fill="none" xmlns="http://www.w3.org/2000/svg">
<path d="M29.7003 10.5877L29.9873 8.98051C30.0752 8.48799 29.6965 8.03571 29.1962 8.03571H23.2334L24.4996 0.944866C24.5875 0.452344 24.2089 0 23.7086 0H22.076C21.8874 6.19375e-07 21.7048 0.066349 21.5601 0.187428C21.4155 0.308507 21.3181 0.4766 21.2849 0.662277L19.9682 8.03571H12.5191L13.7853 0.944866C13.8733 0.452344 13.4946 0 12.9943 0H11.3617C11.1731 6.19375e-07 10.9905 0.066349 10.8459 0.187428C10.7012 0.308507 10.6038 0.4766 10.5706 0.662277L9.25393 8.03571H3.00402C2.8154 8.03572 2.63279 8.10208 2.48816 8.22317C2.34354 8.34426 2.24613 8.51237 2.21298 8.69806L1.92597 10.3052C1.83804 10.7977 2.21672 11.25 2.71708 11.25H8.67991L7.34063 18.75H1.09079C0.902164 18.75 0.719552 18.8164 0.574929 18.9375C0.430306 19.0585 0.33289 19.2267 0.299739 19.4123L0.0127306 21.0195C-0.0751935 21.512 0.303489 21.9643 0.803779 21.9643H6.76661L5.50038 29.0552C5.41246 29.5477 5.79114 30 6.2915 30H7.92409C8.11271 30 8.29532 29.9336 8.43995 29.8125C8.58457 29.6915 8.68198 29.5233 8.71514 29.3377L10.0318 21.9643H17.4809L16.2147 29.0552C16.1267 29.5477 16.5054 30 17.0057 30H18.6383C18.8269 30 19.0095 29.9336 19.1542 29.8125C19.2988 29.6915 19.3962 29.5233 19.4293 29.3377L20.7461 21.9643H26.9959C27.1845 21.9643 27.3671 21.8979 27.5118 21.7768C27.6564 21.6557 27.7538 21.4876 27.787 21.3019L28.074 19.6948C28.1619 19.2023 27.7832 18.75 27.2829 18.75H21.3201L22.6594 11.25H28.9092C29.0978 11.25 29.2804 11.1836 29.4251 11.0625C29.5697 10.9415 29.6671 10.7733 29.7003 10.5877ZM18.0549 18.75H10.6058L11.9451 11.25H19.3942L18.0549 18.75Z" fill="#B8B7B5"/>
</svg>
