<svg width="33" height="30" viewBox="0 0 33 30" fill="none" xmlns="http://www.w3.org/2000/svg">
<path d="M32.2508 6.94922L28.7738 0.878906C28.4631 0.333984 27.9113 0 27.322 0H5.67802C5.08871 0 4.53689 0.333984 4.22616 0.878906L0.7492 6.94922C-0.836594 9.71484 0.213459 13.4297 2.78502 14.6133V27.9375C2.78502 29.0742 3.55113 30 4.49939 30H28.5006C29.4489 30 30.215 29.0742 30.215 27.9375V14.6133C32.7865 13.4297 33.8366 9.71484 32.2508 6.94922ZM27.6434 27.1875H5.35658V21.5625H27.6434V27.1875ZM27.6327 18.7383H5.35658V14.9473C6.64236 14.7539 7.77277 14.0566 8.5871 13.0605C9.55143 14.2383 10.9604 15 12.5409 15C14.1267 15 15.5303 14.2383 16.4946 13.0605C17.459 14.2383 18.868 15 20.4484 15C22.0342 15 23.4379 14.2383 24.4022 13.0605C25.2219 14.0566 26.3469 14.7539 27.6327 14.9473V18.7383ZM30.1989 10.9453C30.0275 11.3438 29.615 12.0352 28.7524 12.1641C28.6238 12.1816 28.4953 12.1934 28.3667 12.1934C27.5791 12.1934 26.8559 11.8359 26.3255 11.1855L24.4129 8.84766L22.5003 11.1797C21.9699 11.8301 21.2413 12.1875 20.4591 12.1875C19.6769 12.1875 18.9483 11.8301 18.418 11.1797L16.5 8.84766L14.5874 11.1797C14.057 11.8301 13.3284 12.1875 12.5462 12.1875C11.7587 12.1875 11.0354 11.8301 10.5051 11.1797L8.5871 8.84766L6.6745 11.1797C6.14412 11.8301 5.41551 12.1875 4.63333 12.1875C4.49939 12.1875 4.37081 12.1758 4.24759 12.1582C3.39041 12.0293 2.97253 11.3438 2.80109 10.9395C2.53322 10.3066 2.42071 9.32227 2.92431 8.44336L6.14947 2.8125H26.8452L30.0703 8.44336C30.5793 9.32812 30.4721 10.3125 30.1989 10.9453Z" fill="#B8B7B5"/>
</svg>
