<svg width="30" height="30" viewBox="0 0 30 30" fill="none" xmlns="http://www.w3.org/2000/svg">
<path d="M26.7857 -1.17084e-06L3.21428 -1.40501e-07C1.43973 -6.29327e-08 -1.24841e-06 1.43973 -1.17084e-06 3.21429L-1.40501e-07 26.7857C-6.29327e-08 28.5603 1.43973 30 3.21429 30L26.7857 30C28.5603 30 30 28.5603 30 26.7857L30 3.21429C30 1.43973 28.5603 -1.24841e-06 26.7857 -1.17084e-06ZM26.7857 26.7857L3.21429 26.7857L3.21428 3.21429L26.7857 3.21429L26.7857 26.7857ZM8.03571 23.5714L9.10714 23.5714C9.69911 23.5714 10.1786 23.092 10.1786 22.5L10.1786 13.9286C10.1786 13.3366 9.69911 12.8571 9.10714 12.8571L8.03571 12.8571C7.44375 12.8571 6.96428 13.3366 6.96428 13.9286L6.96428 22.5C6.96428 23.092 7.44375 23.5714 8.03571 23.5714ZM14.4643 23.5714L15.5357 23.5714C16.1277 23.5714 16.6071 23.092 16.6071 22.5L16.6071 7.5C16.6071 6.90804 16.1277 6.42857 15.5357 6.42857L14.4643 6.42857C13.8723 6.42857 13.3929 6.90804 13.3929 7.5L13.3929 22.5C13.3929 23.092 13.8723 23.5714 14.4643 23.5714ZM20.8929 23.5714L21.9643 23.5714C22.5562 23.5714 23.0357 23.092 23.0357 22.5L23.0357 18.2143C23.0357 17.6223 22.5562 17.1429 21.9643 17.1429L20.8929 17.1429C20.3009 17.1429 19.8214 17.6223 19.8214 18.2143L19.8214 22.5C19.8214 23.092 20.3009 23.5714 20.8929 23.5714Z" fill="#B8B7B5"/>
</svg>
